<svg id="Layer_1" data-name="Layer 1" xmlns="http://www.w3.org/2000/svg" viewBox="0 0 44 44"><defs><style>.cls-1{fill:#00ad20;}.cls-2{fill:#fff;}</style></defs><title>CGU_Primary_Logo</title><path class="cls-1" d="M45,23A22,22,0,1,1,23,1,22,22,0,0,1,45,23" transform="translate(-1 -1)"/><path class="cls-2" d="M22.7,24.37h1.65v1.57a2.93,2.93,0,0,1-1.26.25A2.94,2.94,0,0,1,20,23a3,3,0,0,1,3.28-3.18,7.89,7.89,0,0,1,3.36.84V18.19a7.74,7.74,0,0,0-3.48-.8c-3.65,0-5.91,2.39-5.91,5.63a5.38,5.38,0,0,0,5.63,5.61A5.2,5.2,0,0,0,27,26.86V21.91h-4.3Z" transform="translate(-1 -1)"/><path class="cls-2" d="M7.6,23a5.36,5.36,0,0,0,5.59,5.62A5.14,5.14,0,0,0,16,27.9V25.42a4.82,4.82,0,0,1-2.6.76,2.91,2.91,0,0,1-3-3.17,2.92,2.92,0,0,1,3-3.18,4.82,4.82,0,0,1,2.6.77V18.12a5.14,5.14,0,0,0-2.79-.73A5.36,5.36,0,0,0,7.6,23" transform="translate(-1 -1)"/><path class="cls-2" d="M35.23,17.55V24a1.95,1.95,0,1,1-3.87,0V17.55H28.71V24a4.38,4.38,0,0,0,4.58,4.63A4.39,4.39,0,0,0,37.87,24V17.55Z" transform="translate(-1 -1)"/></svg>