<svg id="Layer_1" data-name="Layer 1" xmlns="http://www.w3.org/2000/svg" viewBox="0 0 328.8 96.24"><defs><style>.cls-1{fill:#fff;}</style></defs><title>Vector Smart Object1</title><path class="cls-1" d="M53.21,6.93A48.12,48.12,0,1,0,101.33,55,48.12,48.12,0,0,0,53.21,6.93ZM37.86,49.79a10.63,10.63,0,0,0-5.68-1.67c-4.12,0-6.65,2.79-6.65,7S28.06,62,32.18,62a10.72,10.72,0,0,0,5.68-1.66v5.42a11.37,11.37,0,0,1-6.11,1.59c-7.35,0-12.23-5.21-12.23-12.29s4.88-12.3,12.23-12.3a11.46,11.46,0,0,1,6.11,1.59Zm15,17.57c-7.34,0-12.3-5.19-12.31-12.28s4.94-12.3,12.93-12.31a16.68,16.68,0,0,1,7.6,1.76V50a17,17,0,0,0-7.34-1.84c-4.59,0-7.19,2.79-7.19,7S49.18,62,53.42,62a6.58,6.58,0,0,0,2.74-.55V58H52.54V52.68h9.4V63.48C60,66,56.6,67.36,52.88,67.36ZM85.74,57.23c0,6.19-4.27,10.13-10,10.13s-10-3.94-10-10.13V43.13h5.79v14.1c0,2.86,1.66,4.78,4.23,4.78S80,60.09,80,57.23V43.13h5.79Z" transform="translate(-5.09 -6.93)"/><rect class="cls-1" x="111.65" y="38.15" width="3.23" height="18.51"/><path class="cls-1" d="M131.19,49.76a6.73,6.73,0,0,0-4.18,1.4V50H124V63.58H127V53.74a6.21,6.21,0,0,1,3.45-1.09c1.65,0,2.72.78,2.72,3.28v7.65h3V55.36C136.23,51.44,134.1,49.76,131.19,49.76Z" transform="translate(-5.09 -6.93)"/><path class="cls-1" d="M145.43,55.62c-1.8-.42-3.4-.51-3.4-1.69,0-1,.93-1.4,2.39-1.4a6.92,6.92,0,0,1,4,1.15V50.85a7.52,7.52,0,0,0-4.18-1.09c-3.34,0-5.35,1.65-5.35,4.23s1.79,3.51,3.53,3.95,3.56.45,3.56,1.74c0,.93-1,1.4-2.61,1.4A8,8,0,0,1,139,60v2.83a8.3,8.3,0,0,0,4.44,1.07c3.56,0,5.66-1.65,5.66-4.43S147.28,56,145.43,55.62Z" transform="translate(-5.09 -6.93)"/><path class="cls-1" d="M160.18,59.91A5.78,5.78,0,0,1,157,61c-1.52,0-2.44-.81-2.44-3.28V50h-3.09v8.24c0,3.93,2,5.58,4.77,5.58a6.24,6.24,0,0,0,3.9-1.37v1.09h3.08V50h-3.08Z" transform="translate(-5.09 -6.93)"/><path class="cls-1" d="M170,50H167V63.58H170v-9.5a9.48,9.48,0,0,1,4.73-1.24V49.76A9,9,0,0,0,170,51.33Z" transform="translate(-5.09 -6.93)"/><rect class="cls-1" x="172.02" y="43.11" width="3.06" height="13.54"/><path class="cls-1" d="M178.62,43.73a2,2,0,0,0,0,4,2,2,0,0,0,0-4Z" transform="translate(-5.09 -6.93)"/><path class="cls-1" d="M191.1,49.76a6.73,6.73,0,0,0-4.18,1.4V50h-3V63.58h3V53.74a6.26,6.26,0,0,1,3.45-1.09c1.65,0,2.72.78,2.72,3.28v7.65h3.06V55.37C196.15,51.44,194,49.76,191.1,49.76Z" transform="translate(-5.09 -6.93)"/><path class="cls-1" d="M209.38,51.1a6.28,6.28,0,0,0-4-1.34,6.9,6.9,0,0,0,0,13.79,6.28,6.28,0,0,0,4-1.34v.84c0,2-1.6,3.28-4.63,3.28a8.78,8.78,0,0,1-4.68-1.21V68A9.59,9.59,0,0,0,205,69.19c4.82,0,7.45-2.66,7.45-6.14V50h-3.08Zm0,8.19a5.27,5.27,0,0,1-3.51,1.37,4,4,0,1,1,0-8A5.27,5.27,0,0,1,209.38,54Z" transform="translate(-5.09 -6.93)"/><path class="cls-1" d="M229.54,45.08l-8.08,18.5H225l1.32-3.28h8l1.32,3.28h3.65l-8.05-18.5Zm-2.11,12.5,2.89-7.12,2.89,7.12Z" transform="translate(-5.09 -6.93)"/><path class="cls-1" d="M256.93,49.76a6.69,6.69,0,0,0-4.68,2,4.21,4.21,0,0,0-3.87-2,6.19,6.19,0,0,0-3.87,1.37V50h-3.06V63.58h3.06V53.74a5.64,5.64,0,0,1,3.11-1.09c1.49,0,2.38.78,2.38,3.28v7.65h3.06V55.37a9.34,9.34,0,0,0-.11-1.55,5.87,5.87,0,0,1,3.22-1.17c1.49,0,2.39.78,2.39,3.28v7.65h3.08V55.37C261.64,51.44,259.62,49.76,256.93,49.76Z" transform="translate(-5.09 -6.93)"/><path class="cls-1" d="M272.15,49.76a6.32,6.32,0,0,0-4,1.34V44h-3.05V63.58h3.05v-1a6.24,6.24,0,0,0,4,1.32,6.71,6.71,0,0,0,6.82-7A6.73,6.73,0,0,0,272.15,49.76ZM271.65,61a5.22,5.22,0,0,1-3.48-1.37V54a5.22,5.22,0,0,1,3.48-1.37,3.89,3.89,0,0,1,4.15,4.17A3.91,3.91,0,0,1,271.65,61Z" transform="translate(-5.09 -6.93)"/><path class="cls-1" d="M283.17,43.73a2,2,0,1,0,2,2A1.93,1.93,0,0,0,283.17,43.73Z" transform="translate(-5.09 -6.93)"/><rect class="cls-1" x="276.56" y="43.11" width="3.06" height="13.54"/><path class="cls-1" d="M292,47.8h-1.46l-3.42,3.39v1.48h1.79V59c0,3.31,1.88,4.91,4.74,4.91a9.06,9.06,0,0,0,2.66-.45V60.55a5.79,5.79,0,0,1-2.15.45c-1.49,0-2.16-.64-2.16-2.21V52.67h4.31V50H292Z" transform="translate(-5.09 -6.93)"/><path class="cls-1" d="M300.39,43.73a2,2,0,1,0,2,2A1.93,1.93,0,0,0,300.39,43.73Z" transform="translate(-5.09 -6.93)"/><rect class="cls-1" x="293.78" y="43.11" width="3.06" height="13.54"/><path class="cls-1" d="M311.77,49.76A7.05,7.05,0,1,0,319,56.82,6.83,6.83,0,0,0,311.77,49.76Zm0,11.24a3.86,3.86,0,0,1-4-4.18,4,4,0,1,1,8.05,0A3.88,3.88,0,0,1,311.77,61Z" transform="translate(-5.09 -6.93)"/><path class="cls-1" d="M328.84,49.76a6.72,6.72,0,0,0-4.17,1.4V50h-3.06V63.58h3.06V53.74a6.2,6.2,0,0,1,3.44-1.09c1.66,0,2.72.78,2.72,3.28v7.65h3.06V55.37C333.89,51.44,331.76,49.76,328.84,49.76Z" transform="translate(-5.09 -6.93)"/></svg>