<?xml version="1.0" encoding="utf-8"?>
<!-- Generator: Adobe Illustrator 23.0.6, SVG Export Plug-In . SVG Version: 6.00 Build 0)  -->
<svg version="1.1" id="Plane" xmlns="http://www.w3.org/2000/svg" xmlns:xlink="http://www.w3.org/1999/xlink" x="0px" y="0px"
	 viewBox="0 0 3420.1 2052" style="enable-background:new 0 0 3420.1 2052;" xml:space="preserve">
<style type="text/css">
	.st0{fill:#2EBC49;}
	.st1{fill:#5DCB71;}
	.st2{fill:#74D285;}
	.st3{fill:#00AD20;}
	.st4{fill:#46C35D;}
</style>
<title>D_Crops</title>
<rect x="0.1" class="st0" width="684" height="684"/>
<rect x="684.1" class="st1" width="684" height="684"/>
<rect x="1368.1" class="st2" width="684" height="684"/>
<rect x="2052.1" class="st3" width="684" height="684"/>
<rect x="684.1" y="684" class="st3" width="684" height="684"/>
<rect x="2052.1" y="684" class="st3" width="684" height="684"/>
<rect x="684.1" y="1368" class="st3" width="684" height="684"/>
<rect x="1368.1" y="1368" class="st3" width="684" height="684"/>
<rect x="2052.1" y="1368" class="st3" width="684" height="684"/>
<path class="st1" d="M2736.1,1368v684h-684c-377.8,0-684-306.2-684-684L2736.1,1368L2736.1,1368z"/>
<rect x="0.1" y="684" class="st3" width="684" height="684"/>
<rect x="0.1" y="1368" class="st2" width="342" height="684"/>
<rect x="342.1" y="1368" class="st4" width="342" height="684"/>
<rect x="1368.1" y="684" class="st3" width="684" height="342"/>
<rect x="1368.1" y="1026" class="st4" width="684" height="342"/>
<path class="st0" d="M2052.1,0c0,188.9-153.1,342-342,342s-342-153.1-342-342L2052.1,0z"/>
<path class="st0" d="M1026.5,684c0,189.1-153.3,342.4-342.4,342.4V684H1026.5z"/>
<path class="st0" d="M1026.5,1025.6c0,189.1-153.3,342.4-342.4,342.4v-342.4H1026.5z"/>
<path class="st0" d="M1368.5,684c0,189.1-153.3,342.4-342.4,342.4V684H1368.5z"/>
<path class="st0" d="M1368.5,1025.6c0,189.1-153.3,342.4-342.4,342.4v-342.4H1368.5z"/>
<rect x="0.8" y="683.8" class="st0" width="42.7" height="684.2"/>
<rect x="86.4" y="683.8" class="st0" width="42.7" height="684.2"/>
<rect x="172" y="683.8" class="st0" width="42.7" height="684.2"/>
<rect x="257.6" y="683.8" class="st0" width="42.7" height="684.2"/>
<rect x="343.1" y="683.8" class="st0" width="42.7" height="684.2"/>
<rect x="428.8" y="683.8" class="st0" width="42.7" height="684.2"/>
<rect x="514.3" y="683.8" class="st0" width="42.7" height="684.2"/>
<rect x="599.9" y="683.8" class="st0" width="42.7" height="684.2"/>
<rect x="725.8" y="1367.8" class="st2" width="42.7" height="684.2"/>
<rect x="811.5" y="1367.8" class="st2" width="42.7" height="684.2"/>
<rect x="897" y="1367.8" class="st2" width="42.7" height="684.2"/>
<rect x="982.6" y="1367.8" class="st2" width="42.7" height="684.2"/>
<rect x="1068.1" y="1367.8" class="st2" width="42.7" height="684.2"/>
<rect x="1153.8" y="1367.8" class="st2" width="42.7" height="684.2"/>
<rect x="1239.3" y="1367.8" class="st2" width="42.7" height="684.2"/>
<rect x="1324.9" y="1367.8" class="st2" width="42.7" height="684.2"/>
<rect x="2051.8" y="683.8" class="st0" width="42.7" height="684.2"/>
<rect x="2137.4" y="683.8" class="st0" width="42.7" height="684.2"/>
<rect x="2223" y="683.8" class="st0" width="42.7" height="684.2"/>
<rect x="2308.6" y="683.8" class="st0" width="42.7" height="684.2"/>
<rect x="2394.1" y="683.8" class="st0" width="42.7" height="684.2"/>
<rect x="2479.8" y="683.8" class="st0" width="42.7" height="684.2"/>
<rect x="2565.3" y="683.8" class="st0" width="42.7" height="684.2"/>
<rect x="2650.9" y="683.8" class="st0" width="42.7" height="684.2"/>
<rect x="2052.1" y="599.5" class="st2" width="684.2" height="42.7"/>
<rect x="2052.1" y="513.9" class="st2" width="684.2" height="42.7"/>
<rect x="2052.1" y="428.4" class="st2" width="684.2" height="42.7"/>
<rect x="2052.1" y="342.7" class="st2" width="684.2" height="42.7"/>
<rect x="2052.1" y="257.2" class="st2" width="684.2" height="42.7"/>
<rect x="2052.1" y="171.6" class="st2" width="684.2" height="42.7"/>
<rect x="2052.1" y="86" class="st2" width="684.2" height="42.7"/>
<rect x="2052.1" y="0.4" class="st2" width="684.2" height="42.7"/>
<circle class="st1" cx="171" cy="171.4" r="171"/>
<circle class="st1" cx="513.1" cy="171" r="171"/>
<circle class="st1" cx="171" cy="513.4" r="171"/>
<circle class="st1" cx="513.1" cy="513" r="171"/>
<rect x="2736" y="1368" class="st0" width="684" height="684"/>
<rect x="2735.9" y="684.1" class="st3" width="684" height="684"/>
<rect x="3078" class="st2" width="342" height="684"/>
<rect x="2736" class="st4" width="342" height="684"/>
<rect x="2735.9" y="684.8" class="st0" width="684.2" height="42.7"/>
<rect x="2735.9" y="770.4" class="st0" width="684.2" height="42.7"/>
<rect x="2735.9" y="856" class="st0" width="684.3" height="42.7"/>
<rect x="2735.9" y="941.6" class="st0" width="684.2" height="42.7"/>
<rect x="2735.9" y="1027.1" class="st0" width="684.2" height="42.7"/>
<rect x="2735.9" y="1112.8" class="st0" width="684.2" height="42.7"/>
<rect x="2735.9" y="1198.3" class="st0" width="684.2" height="42.7"/>
<rect x="2735.9" y="1283.9" class="st0" width="684.2" height="42.7"/>
<circle class="st1" cx="3249.1" cy="1880.6" r="171"/>
<circle class="st1" cx="2907" cy="1881" r="171"/>
<circle class="st1" cx="3249.1" cy="1538.6" r="171"/>
<circle class="st1" cx="2907" cy="1539" r="171"/>
</svg>
