<?xml version="1.0" encoding="utf-8"?>
<!-- Generator: Adobe Illustrator 23.0.6, SVG Export Plug-In . SVG Version: 6.00 Build 0)  -->
<svg version="1.1" id="Plane" xmlns="http://www.w3.org/2000/svg" xmlns:xlink="http://www.w3.org/1999/xlink" x="0px" y="0px"
	 viewBox="0 0 2051.6 3420.1" style="enable-background:new 0 0 2051.6 3420.1;" xml:space="preserve">
<style type="text/css">
	.st0{fill:#2EBC49;}
	.st1{fill:#5DCB71;}
	.st2{fill:#74D285;}
	.st3{fill:#00AD20;}
	.st4{fill:#46C35D;}
</style>
<title>D_Crops</title>
<rect x="1368" class="st0" width="684" height="684"/>
<rect x="1368" y="684" class="st1" width="684" height="684"/>
<rect x="1368" y="1368" class="st2" width="684" height="684"/>
<rect x="1368" y="2052" class="st3" width="684" height="684"/>
<rect x="684" y="684" class="st3" width="684" height="684"/>
<rect x="684" y="2052" class="st3" width="684" height="684"/>
<rect y="684" class="st3" width="684" height="684"/>
<rect y="1368" class="st3" width="684" height="684"/>
<rect y="2052" class="st3" width="684" height="684"/>
<path class="st1" d="M684,2736H0v-684c0-377.8,306.2-684,684-684V2736L684,2736z"/>
<rect x="684" class="st3" width="684" height="684"/>
<rect class="st2" width="684" height="342"/>
<rect y="342" class="st4" width="684" height="342"/>
<rect x="1026" y="1368" class="st3" width="342" height="684"/>
<rect x="684" y="1368" class="st4" width="342" height="684"/>
<path class="st0" d="M2052,2052c-188.9,0-342-153.1-342-342s153.1-342,342-342V2052z"/>
<path class="st0" d="M1368,1026.4c-189.1,0-342.4-153.3-342.4-342.4H1368V1026.4z"/>
<path class="st0" d="M1026.4,1026.4C837.3,1026.4,684,873.1,684,684h342.4V1026.4z"/>
<path class="st0" d="M1368,1368.4c-189.1,0-342.4-153.3-342.4-342.4H1368V1368.4z"/>
<path class="st0" d="M1026.4,1368.4c-189.1,0-342.4-153.3-342.4-342.4h342.4V1368.4z"/>
<rect x="684" y="0.7" class="st0" width="684.2" height="42.7"/>
<rect x="684" y="86.3" class="st0" width="684.2" height="42.7"/>
<rect x="684" y="171.9" class="st0" width="684.2" height="42.7"/>
<rect x="684" y="257.5" class="st0" width="684.2" height="42.7"/>
<rect x="684" y="343" class="st0" width="684.2" height="42.7"/>
<rect x="684" y="428.7" class="st0" width="684.2" height="42.7"/>
<rect x="684" y="514.2" class="st0" width="684.2" height="42.7"/>
<rect x="684" y="599.8" class="st0" width="684.2" height="42.7"/>
<rect y="725.7" class="st2" width="684.2" height="42.7"/>
<rect y="811.4" class="st2" width="684.2" height="42.7"/>
<rect y="896.9" class="st2" width="684.2" height="42.7"/>
<rect y="982.5" class="st2" width="684.2" height="42.7"/>
<rect y="1068" class="st2" width="684.2" height="42.7"/>
<rect y="1153.7" class="st2" width="684.2" height="42.7"/>
<rect y="1239.2" class="st2" width="684.2" height="42.7"/>
<rect y="1324.8" class="st2" width="684.2" height="42.7"/>
<rect x="684" y="2051.7" class="st0" width="684.2" height="42.7"/>
<rect x="684" y="2137.3" class="st0" width="684.2" height="42.7"/>
<rect x="684" y="2222.9" class="st0" width="684.2" height="42.7"/>
<rect x="684" y="2308.5" class="st0" width="684.2" height="42.7"/>
<rect x="684" y="2394" class="st0" width="684.2" height="42.7"/>
<rect x="684" y="2479.7" class="st0" width="684.2" height="42.7"/>
<rect x="684" y="2565.2" class="st0" width="684.2" height="42.7"/>
<rect x="684" y="2650.8" class="st0" width="684.2" height="42.7"/>
<rect x="1409.8" y="2052" class="st2" width="42.7" height="684.2"/>
<rect x="1495.4" y="2052" class="st2" width="42.7" height="684.2"/>
<rect x="1580.9" y="2052" class="st2" width="42.7" height="684.2"/>
<rect x="1666.6" y="2052" class="st2" width="42.7" height="684.2"/>
<rect x="1752.1" y="2052" class="st2" width="42.7" height="684.2"/>
<rect x="1837.7" y="2052" class="st2" width="42.7" height="684.2"/>
<rect x="1923.3" y="2052" class="st2" width="42.7" height="684.2"/>
<rect x="2008.9" y="2052" class="st2" width="42.7" height="684.2"/>
<circle class="st1" cx="1880.6" cy="170.9" r="171"/>
<circle class="st1" cx="1881" cy="513" r="171"/>
<circle class="st1" cx="1538.6" cy="170.9" r="171"/>
<circle class="st1" cx="1539" cy="513" r="171"/>
<rect y="2735.9" class="st0" width="684" height="684"/>
<rect x="683.9" y="2735.8" class="st3" width="684" height="684"/>
<rect x="1368" y="3077.9" class="st2" width="684" height="342"/>
<rect x="1368" y="2735.9" class="st4" width="684" height="342"/>
<rect x="1324.5" y="2735.8" class="st0" width="42.7" height="684.2"/>
<rect x="1238.9" y="2735.8" class="st0" width="42.7" height="684.2"/>
<rect x="1153.3" y="2735.8" class="st0" width="42.7" height="684.3"/>
<rect x="1067.7" y="2735.8" class="st0" width="42.7" height="684.2"/>
<rect x="982.2" y="2735.8" class="st0" width="42.7" height="684.2"/>
<rect x="896.5" y="2735.8" class="st0" width="42.7" height="684.2"/>
<rect x="811" y="2735.8" class="st0" width="42.7" height="684.2"/>
<rect x="725.4" y="2735.8" class="st0" width="42.7" height="684.2"/>
<circle class="st1" cx="171.4" cy="3249" r="171"/>
<circle class="st1" cx="171" cy="2906.9" r="171"/>
<circle class="st1" cx="513.4" cy="3249" r="171"/>
<circle class="st1" cx="513" cy="2906.9" r="171"/>
</svg>
